<svg class=" w-lg h-lg" viewBox="0 0 16 16" xmlns="http://www.w3.org/2000/svg" role="graphics-symbol" fill="none" style="border-color: currentcolor;"><title>Cross</title><path d="M8.72398 7.99999L13.1826 3.54137C13.2302 3.49379 13.2679 3.4373 13.2937 3.37513C13.3194 3.31297 13.3327 3.24634 13.3327 3.17905C13.3327 3.11176 13.3194 3.04513 13.2937 2.98296C13.2679 2.9208 13.2302 2.86431 13.1826 2.81673C13.135 2.76915 13.0785 2.73141 13.0164 2.70566C12.9542 2.67991 12.8876 2.66666 12.8203 2.66666C12.753 2.66666 12.6864 2.67991 12.6242 2.70566C12.562 2.73141 12.5056 2.76915 12.458 2.81673L7.99935 7.27536L3.54072 2.81673C3.44463 2.72064 3.3143 2.66666 3.17841 2.66666C3.04251 2.66666 2.91218 2.72064 2.81609 2.81673C2.72 2.91283 2.66602 3.04315 2.66602 3.17905C2.66602 3.31494 2.72 3.44527 2.81609 3.54137L7.27472 7.99999L2.81609 12.4586C2.72 12.5547 2.66602 12.685 2.66602 12.8209C2.66602 12.9568 2.72 13.0872 2.81609 13.1832C2.91218 13.2793 3.04251 13.3333 3.17841 13.3333C3.3143 13.3333 3.44463 13.2793 3.54072 13.1832L7.99935 8.72462L12.458 13.1832C12.5056 13.2308 12.562 13.2686 12.6242 13.2943C12.6864 13.3201 12.753 13.3333 12.8203 13.3333C12.8876 13.3333 12.9542 13.3201 13.0164 13.2943C13.0785 13.2686 13.135 13.2308 13.1826 13.1832C13.2302 13.1357 13.2679 13.0792 13.2937 13.017C13.3194 12.9548 13.3327 12.8882 13.3327 12.8209C13.3327 12.7536 13.3194 12.687 13.2937 12.6248C13.2679 12.5627 13.2302 12.5062 13.1826 12.4586L8.72398 7.99999Z" fill="currentColor"></path></svg>
