<svg xmlns="http://www.w3.org/2000/svg" role="graphics-symbol" class="w-[14px] h-[14px] w-md h-md" viewBox="0 0 12 12" fill="none"><title>Checkmark</title><path d="M6 0C4.81331 0 3.65328 0.351894 2.66658 1.01118C1.67989 1.67047 0.910851 2.60754 0.456726 3.7039C0.00259972 4.80026 -0.11622 6.00666 0.115291 7.17054C0.346802 8.33443 0.918247 9.40353 1.75736 10.2426C2.59648 11.0818 3.66558 11.6532 4.82946 11.8847C5.99335 12.1162 7.19975 11.9974 8.2961 11.5433C9.39246 11.0892 10.3295 10.3201 10.9888 9.33342C11.6481 8.34673 12 7.18669 12 6C12 4.4087 11.3679 2.88258 10.2426 1.75736C9.11742 0.632141 7.5913 0 6 0V0ZM6.22 11C5.22719 11.0435 4.24393 10.7902 3.39573 10.2724C2.54754 9.75453 1.87289 8.99569 1.45791 8.09272C1.04293 7.18974 0.906436 6.18358 1.06586 5.20269C1.22528 4.22179 1.67338 3.31064 2.35297 2.58556C3.03255 1.86048 3.91279 1.35436 4.88132 1.1318C5.84984 0.909237 6.86272 0.980335 7.79066 1.33602C8.7186 1.6917 9.5195 2.31583 10.0911 3.12873C10.6628 3.94164 10.9792 4.90645 11 5.9C11.0275 7.20437 10.544 8.46781 9.65281 9.42066C8.76162 10.3735 7.53329 10.9403 6.23 11H6.22Z" fill="#2C7D50"></path><path d="M8.32052 3.50006C8.255 3.45756 8.1817 3.42849 8.10487 3.41453C8.02803 3.40057 7.94919 3.40201 7.87291 3.41875C7.79663 3.43549 7.72444 3.46721 7.66052 3.51207C7.59659 3.55693 7.54221 3.61403 7.50052 3.68006L5.35052 7.00006L4.45052 6.00006C4.39799 5.94097 4.33433 5.8928 4.26319 5.8583C4.19204 5.82381 4.1148 5.80367 4.03587 5.79902C3.95694 5.79438 3.87787 5.80533 3.80317 5.83124C3.72847 5.85716 3.65961 5.89753 3.60052 5.95006C3.54142 6.00259 3.49325 6.06625 3.45876 6.13739C3.42426 6.20854 3.40412 6.28578 3.39948 6.36471C3.39483 6.44364 3.40578 6.52271 3.4317 6.59741C3.45761 6.67211 3.49799 6.74097 3.55052 6.80006L4.89052 8.30006C4.96255 8.38024 5.05212 8.4427 5.15226 8.48258C5.25239 8.52245 5.36038 8.53867 5.46781 8.52996C5.57523 8.52125 5.6792 8.48784 5.7716 8.43236C5.864 8.37687 5.94234 8.3008 6.00052 8.21006L8.50052 4.32006C8.54302 4.25455 8.57209 4.18125 8.58605 4.10441C8.60001 4.02758 8.59857 3.94873 8.58183 3.87246C8.56509 3.79618 8.53337 3.72399 8.48851 3.66006C8.44365 3.59614 8.38655 3.54175 8.32052 3.50006Z" fill="#2C7D50"></path></svg>
