<svg width="24" height="24" viewBox="0 0 24 24" fill="none" xmlns="http://www.w3.org/2000/svg">
<path fill-rule="evenodd" clip-rule="evenodd" d="M23.875 18.4937V5.23688L12.0625 0L0.25 5.23688V18.4937L12.0625 23.7306L23.875 18.4937ZM12.0625 9.975L2.20039 5.6028L6.97494 3.48609L16.8375 7.8573L12.0625 9.975ZM18.2245 7.2433L8.36274 2.87083L12.0625 1.2306L21.9246 5.60281L18.2245 7.2433ZM22.75 17.7619V6.46746L12.6245 10.9563L12.625 22.2506L22.75 17.7619ZM1.375 17.7619L11.5 22.2506L11.4995 10.9553L1.375 6.46742V17.7619ZM20.875 16.3193L15.25 18.8037V13.3363L20.875 10.8519V16.3193ZM16.375 14.0693V17.0769L19.75 15.5863V12.5787L16.375 14.0693Z" fill="#00081C"></path>
</svg>
